# xmcd
#
# Track frame offsets: 
#        150
#        13427
#        26850
#        38822
#        52442
#        66427
#        78625
#        92882
#        107535
#        119942
#        132405
#        145007
#        158950
#        170360
#        183260
#        196120
#        209955
#        223665
#        235927
#        248805
#        260242
#        273065
#        286172
#        299597
#
# Disc length: 4178 seconds
#
# Revision: 0
# Processed by: cddbd v1.4PL0 Copyright (c) Steve Scherf et al.
# Submitted via: ExactAudioCopy v0.90b4
#
DISCID=8a105018
DTITLE=Tampa Red and Big Maceo - Guitar and Piano Duets
DYEAR=1999
DGENRE=Blues
TTITLE0=I Got A Right To Be Blue
TTITLE1=She's Love Crazy
TTITLE2=So Long Baby
TTITLE3=You'd Better Be Ready To Go
TTITLE4=Can't You Read
TTITLE5=No Baby No
TTITLE6=It's All Up To You
TTITLE7=Poor Kelly Blues
TTITLE8=Gin Head Woman
TTITLE9=Don't Jive It Mama
TTITLE10=Anytime For You
TTITLE11=I Ain't For It
TTITLE12=Kid Man Blues
TTITLE13=I Can't Get Along With You
TTITLE14=Give Me Mine Now
TTITLE15=Come On Home
TTITLE16=I Oughta Bite You
TTITLE17=Corrine Blues
TTITLE18=Winter Time Blues
TTITLE19=Play Proof Woman
TTITLE20=Won't Be A Fool No More
TTITLE21=Big Road Blues
TTITLE22=Let's Try It Again
TTITLE23=Please Be Careful
EXTD=
EXTT0=
EXTT1=
EXTT2=
EXTT3=
EXTT4=
EXTT5=
EXTT6=
EXTT7=
EXTT8=
EXTT9=
EXTT10=
EXTT11=
EXTT12=
EXTT13=
EXTT14=
EXTT15=
EXTT16=
EXTT17=
EXTT18=
EXTT19=
EXTT20=
EXTT21=
EXTT22=
EXTT23=
PLAYORDER=
